<svg width="52" height="55" viewBox="0 0 52 55" fill="none" xmlns="http://www.w3.org/2000/svg">
<g clip-path="url(#clip0_31_2)">
<path d="M51.5151 27.537C51.4896 27.4471 51.5253 27.3995 51.6273 27.3995C51.9639 27.3995 51.8517 27.262 51.0867 26.7225C49.0263 25.2788 45.3492 23.2533 42.7227 22.1269C39.219 20.6144 34.7769 19.3398 31.4109 18.8797C30.8958 18.8057 30.4725 18.7422 30.4623 18.7264C30.447 18.7105 31.2426 16.96 32.2371 14.8235C33.2214 12.687 34.1853 10.598 34.374 10.1644C34.5984 9.65138 34.7718 9.38167 34.8585 9.37109C34.935 9.37109 35.7816 10.1908 36.72 11.1903C37.6584 12.2004 40.3971 15.0668 42.7941 17.5735C52.2954 27.5052 52.0863 27.2725 51.9741 27.4788C51.8721 27.6956 51.5814 27.7326 51.5049 27.5317L51.5151 27.537Z" fill="#205099"/>
<path d="M34.425 9.19659C34.425 9.149 34.5015 9.10669 34.5984 9.10669C34.6953 9.10669 34.7718 9.15429 34.7718 9.19659C34.7718 9.24948 34.6953 9.2865 34.5984 9.2865C34.5015 9.2865 34.425 9.24948 34.425 9.19659Z" fill="#205099"/>
<path d="M43.1205 36.4164C43.1205 36.3688 43.197 36.3265 43.3041 36.3265C43.401 36.3265 43.452 36.3741 43.4265 36.4164C43.401 36.4693 43.3143 36.5063 43.2429 36.5063C43.1715 36.5063 43.1205 36.4693 43.1205 36.4164Z" fill="#FF6364"/>
<path d="M43.3602 36.1573C43.35 36.1203 41.5242 34.1847 39.3159 31.8578C36.21 28.6054 35.3175 27.6112 35.394 27.5213C35.4654 27.4208 37.0719 27.4049 43.7325 27.4049C48.2715 27.4049 51.9843 27.4313 51.9843 27.4789C51.9843 27.5847 43.605 36.2419 43.4928 36.2419C43.4418 36.2419 43.3806 36.2049 43.3602 36.1626V36.1573Z" fill="#FF6364"/>
<path d="M23.9649 29.6736C22.7817 28.4467 21.8178 27.3996 21.8178 27.3573C21.8178 27.3044 22.7664 26.2837 23.9292 25.0779C25.3215 23.6342 26.0916 22.8938 26.214 22.8938C26.3364 22.8938 27.1014 23.6342 28.509 25.1097L30.6204 27.3255L28.458 29.5996C27.2646 30.8529 26.2497 31.8895 26.2089 31.8895C26.1579 31.9 25.1583 30.9058 23.9649 29.6736Z" fill="#FF6364"/>
<path d="M4.0443 23.2376C15.2082 11.5818 17.3553 9.37121 17.4573 9.39236C17.5287 9.40823 17.8041 9.9265 18.0846 10.5452C18.3651 11.1693 19.3188 13.2582 20.196 15.1885C21.0834 17.1241 21.7872 18.7318 21.7515 18.7688C21.7158 18.8058 21.3333 18.8746 20.8896 18.9327C17.5185 19.3294 12.8061 20.6885 9.0066 22.3755C7.3644 23.0948 4.4166 24.639 3.2181 25.3952C2.6877 25.7284 2.0859 26.1092 1.887 26.2255C1.6881 26.3525 1.2954 26.6222 1.02 26.839C-0.260099 27.8385 0.464101 26.9765 4.0443 23.2428V23.2376Z" fill="#FF6364"/>
<path d="M34.3383 45.6658C34.3383 45.6024 34.4148 45.523 34.5117 45.4966C34.7055 45.4437 34.9656 46.0466 32.0943 39.8432C31.2324 37.987 30.549 36.4375 30.5745 36.4005C30.5898 36.3529 33.5019 36.3264 37.0515 36.3264H43.4826L38.9895 41.0596C36.5109 43.6668 34.4607 45.7928 34.4148 45.7928C34.3689 45.7928 34.3383 45.7399 34.3383 45.6658Z" fill="#F8B606"/>
<path d="M8.9301 36.5274C1.9227 29.2504 0.367201 27.5951 0.464101 27.5105C0.561001 27.4312 2.6571 27.41 8.8536 27.4206L17.1207 27.4471L12.9846 31.8206L8.8485 36.1942L15.2643 36.2206C18.8037 36.2312 21.7209 36.2735 21.7566 36.3105C21.828 36.3846 17.7072 45.3697 17.595 45.4067C17.5491 45.4226 13.6578 41.4245 8.9352 36.5274H8.9301Z" fill="#F8B606"/>
<path d="M21.9963 50.1134C19.7013 47.7177 17.8398 45.7134 17.8602 45.6605C17.8755 45.5971 20.7825 45.5601 26.3007 45.5442L34.7157 45.5283L30.6204 49.8278C28.3764 52.1971 26.4588 54.2173 26.3517 54.3072L26.1681 54.4764L21.9963 50.1134Z" fill="#AFDD83"/>
<path d="M26.0202 9.22302C21.369 9.20715 17.5593 9.17013 17.5593 9.12254C17.5695 8.98504 26.0457 0.269653 26.1732 0.269653C26.3211 0.269653 34.7718 9.03264 34.7718 9.186C34.7718 9.23888 34.7004 9.2759 34.6239 9.26533C34.5372 9.24946 30.6612 9.22831 26.0151 9.21773L26.0202 9.22302Z" fill="#AFDD83"/>
</g>
<defs>
<clipPath id="clip0_31_2">
<rect width="52" height="55" fill="white"/>
</clipPath>
</defs>
</svg>
