<svg width="1064" height="106" viewBox="0 0 1064 106" fill="none" xmlns="http://www.w3.org/2000/svg">
<g clip-path="url(#clip0_160_4)">
<rect width="563" height="170" transform="translate(-92)" fill="#FFFCF6"/>
<path d="M-46.19 146.761C-44.7077 124.473 -32.4126 103.483 -11.8405 88.1191C8.73167 72.7555 36.0119 64.1902 64.3739 64.1898C67.7389 64.1898 71.0616 64.3279 74.3503 64.5594C87.284 47.0501 105.829 32.5174 128.134 22.4128C150.438 12.3082 175.721 6.98528 201.458 6.97572C227.194 6.96616 252.484 12.2703 274.8 22.3583C297.117 32.4463 315.68 46.9652 328.634 64.465C331.41 64.3012 334.201 64.192 337.029 64.192C365.391 64.1923 392.671 72.7573 413.243 88.1205C433.815 103.484 446.11 124.473 447.593 146.761" fill="#F2F2F2"/>
<path d="M-23.1296 140.059C-21.6467 117.772 -9.35123 96.7819 11.2208 81.4187C31.7929 66.0555 59.0728 57.4905 87.4343 57.4902C90.7993 57.4902 94.122 57.6283 97.4107 57.8598C110.344 40.3505 128.889 25.8178 151.194 15.7132C173.498 5.60856 198.781 0.285665 224.518 0.276105C250.255 0.266546 275.544 5.57065 297.861 15.6587C320.177 25.7467 338.74 40.2656 351.695 57.7653C354.47 57.6015 357.262 57.4923 360.09 57.4923C388.451 57.4927 415.73 66.0574 436.302 81.4201C456.874 96.7828 469.17 117.772 470.654 140.059" stroke="#3F3D56" stroke-miterlimit="10"/>
</g>
<path d="M445 146C445.831 132.288 452.729 119.374 464.269 109.921C475.81 100.469 491.113 95.1996 507.024 95.1994C508.912 95.1994 510.775 95.2816 512.62 95.427C519.876 84.6548 530.279 75.7139 542.791 69.4973C555.304 63.2807 569.487 60.0059 583.924 60C598.362 59.9941 612.549 63.2573 625.068 69.4637C637.587 75.6701 648 84.6024 655.267 95.3687C656.824 95.2676 658.39 95.1994 659.976 95.1994C675.886 95.1996 691.19 100.469 702.73 109.921C714.271 119.373 721.168 132.286 722 145.998" fill="#A5B6F5"/>
<path d="M458 142C458.831 128.288 465.728 115.374 477.269 105.921C488.81 96.469 504.113 91.1995 520.024 91.1995C521.912 91.1995 523.775 91.2816 525.62 91.4271C532.876 80.6549 543.279 71.714 555.791 65.4974C568.303 59.2807 582.486 56.0059 596.924 56C611.361 55.9941 625.548 59.2573 638.067 65.4637C650.586 71.6701 660.999 80.6025 668.266 91.3687C669.823 91.2677 671.389 91.1995 672.975 91.1995C688.886 91.1992 704.19 96.4686 715.73 105.921C727.271 115.373 734.169 128.287 735 141.999" stroke="#3F3D56" stroke-miterlimit="10"/>
<path d="M773 184C773.831 170.288 780.729 157.374 792.269 147.921C803.81 138.469 819.113 133.2 835.024 133.199C836.912 133.199 838.775 133.282 840.62 133.427C847.876 122.655 858.279 113.714 870.791 107.497C883.304 101.281 897.487 98.0059 911.924 98C926.362 97.9941 940.549 101.257 953.068 107.464C965.587 113.67 976 122.602 983.267 133.369C984.824 133.268 986.39 133.199 987.976 133.199C1003.89 133.2 1019.19 138.469 1030.73 147.921C1042.27 157.373 1049.17 170.286 1050 183.998" fill="#A5B6F5"/>
<path d="M786 180C786.831 166.288 793.728 153.374 805.269 143.921C816.81 134.469 832.113 129.199 848.024 129.199C849.912 129.199 851.775 129.282 853.62 129.427C860.876 118.655 871.279 109.714 883.791 103.497C896.303 97.2807 910.486 94.0059 924.924 94C939.361 93.9941 953.548 97.2573 966.067 103.464C978.586 109.67 988.999 118.602 996.266 129.369C997.823 129.268 999.389 129.199 1000.97 129.199C1016.89 129.199 1032.19 134.469 1043.73 143.921C1055.27 153.373 1062.17 166.287 1063 179.999" stroke="#3F3D56" stroke-miterlimit="10"/>
<path d="M454 149.374C454.528 141.253 458.909 133.606 466.24 128.008C473.571 122.411 483.292 119.29 493.398 119.29C494.597 119.29 495.781 119.34 496.953 119.421C501.561 113.042 508.17 107.747 516.118 104.066C524.066 100.384 533.075 98.4448 542.246 98.4413C551.417 98.4378 560.429 100.37 568.381 104.046C576.333 107.721 582.948 113.011 587.564 119.387C588.552 119.327 589.547 119.287 590.555 119.287C600.662 119.287 610.383 122.408 617.713 128.005C625.044 133.603 629.425 141.25 629.953 149.37" fill="#F2F2F2"/>
<path d="M462.216 146.932C462.745 138.812 467.126 131.164 474.456 125.567C481.787 119.969 491.508 116.849 501.614 116.848C502.813 116.848 503.997 116.898 505.169 116.98C509.778 110.601 516.386 105.306 524.334 101.624C532.282 97.9428 541.291 96.0035 550.462 96C559.633 95.9965 568.645 97.9291 576.597 101.605C584.549 105.28 591.164 110.57 595.78 116.946C596.769 116.886 597.764 116.846 598.772 116.846C608.878 116.846 618.599 119.967 625.929 125.564C633.26 131.161 637.641 138.809 638.17 146.929" stroke="#3F3D56" stroke-miterlimit="10"/>
<path d="M604 163C604.838 146.419 611.785 130.803 623.408 119.373C635.032 107.944 650.446 101.571 666.471 101.571C668.372 101.571 670.25 101.673 672.108 101.84C679.416 88.8136 689.894 78.0019 702.497 70.4845C715.099 62.9671 729.385 59.0071 743.927 59C758.469 58.9929 772.758 62.939 785.368 70.4441C797.977 77.9493 808.465 88.7508 815.785 101.77C817.352 101.648 818.93 101.566 820.529 101.566C836.554 101.566 851.967 107.938 863.591 119.367C875.215 130.797 882.162 146.412 883 162.993" fill="#F2F2F2"/>
<path d="M617 158C617.838 141.419 624.785 125.803 636.408 114.373C648.032 102.944 663.446 96.5713 679.471 96.5709C681.372 96.5709 683.25 96.6731 685.108 96.8398C692.416 83.8136 702.894 73.0019 715.497 65.4845C728.099 57.9671 742.385 54.0071 756.927 54C771.469 53.9929 785.758 57.939 798.368 65.4442C810.977 72.9493 821.465 83.7508 828.785 96.7699C830.353 96.6475 831.93 96.5655 833.529 96.5655C849.554 96.5659 864.967 102.938 876.591 114.367C888.215 125.797 895.162 141.412 896 157.993" stroke="#3F3D56" stroke-miterlimit="10"/>
<defs>
<clipPath id="clip0_160_4">
<rect width="563" height="170" fill="white" transform="translate(-92)"/>
</clipPath>
</defs>
</svg>
