<svg width="1119" height="126" viewBox="0 0 1119 126" fill="none" xmlns="http://www.w3.org/2000/svg">
<g clip-path="url(#clip0_160_3)">
<rect width="627.692" height="192.227" transform="matrix(-0.999928 0.0120091 -0.0116749 -0.999932 1290.5 118.462)" fill="#FFFCF6"/>
<path d="M1237.49 -46.8628C1236.13 -21.6428 1222.7 2.25489 1199.97 19.9015C1177.24 37.5482 1146.94 47.598 1115.32 47.9782C1111.57 48.0232 1107.86 47.9116 1104.19 47.6938C1090.01 67.6643 1069.52 84.3443 1044.79 96.0679C1020.06 107.792 991.944 114.149 963.252 114.504C934.561 114.859 906.297 109.201 881.285 98.0933C856.273 86.9858 835.387 70.8182 820.714 51.2053C817.622 51.4276 814.511 51.5885 811.358 51.6263C779.74 52.0056 749.215 42.6867 726.078 25.5915C702.94 8.4962 688.956 -15.0717 687.009 -40.2515" fill="#F2F2F2"/>
<path d="M1211.87 -38.9765C1210.51 -13.7569 1197.08 10.1402 1174.35 27.7863C1151.62 45.4324 1121.32 55.4819 1089.7 55.8621C1085.95 55.9071 1082.24 55.7954 1078.58 55.5777C1064.39 75.5482 1043.9 92.2281 1019.17 103.952C994.44 115.675 966.324 122.032 937.633 122.388C908.941 122.743 880.677 117.085 855.665 105.977C830.653 94.8697 809.767 78.7021 795.094 59.0891C792.002 59.3115 788.891 59.4723 785.738 59.5102C754.121 59.8895 723.596 50.5709 700.459 33.4762C677.322 16.3815 663.337 -7.18579 661.389 -32.3652" stroke="#3F3D56" stroke-miterlimit="10"/>
</g>
<path d="M689.91 -39.4261C689.164 -23.9109 681.645 -9.2171 668.904 1.62483C656.163 12.4667 639.172 18.6299 621.435 18.8431C619.33 18.8684 617.252 18.8005 615.193 18.6607C607.246 30.9377 595.766 41.1862 581.899 48.3826C568.033 55.5791 552.264 59.4717 536.169 59.6717C520.074 59.8717 504.215 56.372 490.176 49.5223C476.138 42.6725 464.411 32.7124 456.167 20.6366C454.433 20.7717 452.688 20.8698 450.92 20.891C433.183 21.1038 416.052 15.3508 403.062 4.81826C390.071 -5.71424 382.212 -20.2229 381.103 -35.7155" fill="#A5B6F5"/>
<path d="M675.47 -34.7293C674.724 -19.2141 667.206 -4.52017 654.465 6.32178C641.724 17.1637 624.732 23.3268 606.994 23.5398C604.89 23.5651 602.812 23.4971 600.753 23.3574C592.806 35.6344 581.327 45.8829 567.46 53.0794C553.593 60.2759 537.825 64.1685 521.729 64.3685C505.634 64.5685 489.775 61.0688 475.737 54.219C461.699 47.3692 449.972 37.4091 441.728 25.3333C439.994 25.4684 438.249 25.5664 436.481 25.5877C418.743 25.801 401.613 20.048 388.622 9.51521C375.631 -1.01753 367.771 -15.5267 366.663 -31.0196" stroke="#3F3D56" stroke-miterlimit="10"/>
<path d="M323.745 -78C322.999 -62.4848 315.481 -47.7909 302.74 -36.949C289.999 -26.1071 273.007 -19.944 255.27 -19.7307C253.165 -19.7055 251.087 -19.7734 249.028 -19.9131C241.082 -7.63618 229.602 2.6123 215.735 9.80878C201.868 17.0053 186.099 20.8979 170.004 21.0979C153.909 21.2978 138.05 17.7982 124.012 10.9484C109.973 4.09866 98.2464 -5.86147 90.0024 -17.9373C88.2684 -17.8022 86.5233 -17.7041 84.755 -17.6828C67.0179 -17.47 49.8877 -23.2231 36.8972 -33.7556C23.9068 -44.2881 16.0469 -58.7968 14.9384 -74.2893" fill="#A5B6F5"/>
<path d="M309.305 -73.3032C308.56 -57.788 301.041 -43.094 288.3 -32.2521C275.559 -21.4101 258.568 -15.2471 240.83 -15.034C238.725 -15.0088 236.647 -15.0767 234.588 -15.2164C226.642 -2.93949 215.162 7.30901 201.295 14.5055C187.429 21.702 171.66 25.5946 155.565 25.7946C139.47 25.9946 123.611 22.4949 109.573 15.6452C95.5342 8.79537 83.8076 -1.1648 75.5638 -13.2406C73.8298 -13.1055 72.0847 -13.0074 70.3165 -12.9862C52.5789 -12.7729 35.4481 -18.5259 22.4573 -29.0586C9.46655 -39.5914 1.60663 -54.1005 0.498708 -69.5935" stroke="#3F3D56" stroke-miterlimit="10"/>
<path d="M679.832 -43.12C679.35 -33.9315 674.567 -25.226 666.468 -18.7988C658.37 -12.3717 647.574 -8.71304 636.307 -8.57751C634.971 -8.56146 633.65 -8.60218 632.343 -8.6788C627.289 -1.40412 619.992 4.67109 611.18 8.94009C602.368 13.2091 592.349 15.5225 582.125 15.6492C571.901 15.7759 561.83 13.7115 552.916 9.66217C544.002 5.61285 536.558 -0.279666 531.327 -7.42689C530.226 -7.34591 529.117 -7.28718 527.994 -7.27369C516.727 -7.13857 505.849 -10.5368 497.602 -16.7675C489.356 -22.9982 484.371 -31.5862 483.675 -40.7604" fill="#F2F2F2"/>
<path d="M670.704 -40.2496C670.223 -31.0612 665.439 -22.3556 657.341 -15.9285C649.242 -9.50131 638.446 -5.84269 627.179 -5.70716C625.843 -5.69111 624.522 -5.73183 623.215 -5.80845C618.161 1.46623 610.864 7.54145 602.052 11.8104C593.24 16.0795 583.222 18.3928 572.998 18.5195C562.774 18.6462 552.702 16.5818 543.788 12.5325C534.874 8.4832 527.43 2.59068 522.2 -4.55654C521.098 -4.47556 519.99 -4.41683 518.866 -4.40334C507.599 -4.26822 496.721 -7.66643 488.475 -13.8971C480.229 -20.1278 475.243 -28.7159 474.547 -37.89" stroke="#3F3D56" stroke-miterlimit="10"/>
<path d="M512.428 -56.5186C511.713 -37.7596 504.175 -20.0103 491.367 -6.93126C478.559 6.14776 461.46 13.559 443.594 13.774C441.475 13.7995 439.381 13.7091 437.307 13.5455C429.332 28.3717 417.793 40.7365 403.843 49.4049C389.892 58.0734 374.019 62.7421 357.807 62.9448C341.595 63.1475 325.613 58.8771 311.457 50.5601C297.3 42.2431 285.465 30.1705 277.133 15.5482C275.387 15.7075 273.629 15.8214 271.847 15.8428C253.982 16.0569 236.714 9.05863 223.605 -3.7088C210.496 -16.4762 202.545 -34.0391 201.392 -52.7754" fill="#F2F2F2"/>
<path d="M498.001 -50.6912C497.287 -31.9322 489.748 -14.1829 476.94 -1.10387C464.133 11.9751 447.033 19.3864 429.168 19.6014C427.049 19.6268 424.954 19.5365 422.881 19.3729C414.906 34.1991 403.367 46.5639 389.416 55.2323C375.466 63.9007 359.592 68.5695 343.38 68.7722C327.169 68.9749 311.186 64.7044 297.03 56.3874C282.874 48.0704 271.038 35.9979 262.706 21.3756C260.96 21.5349 259.203 21.6488 257.421 21.6702C239.556 21.8843 222.288 14.886 209.179 2.11858C196.069 -10.6488 188.118 -28.2117 186.965 -46.948" stroke="#3F3D56" stroke-miterlimit="10"/>
<defs>
<clipPath id="clip0_160_3">
<rect width="627.692" height="192.227" fill="white" transform="matrix(-0.999928 0.0120091 -0.0116749 -0.999932 1290.5 118.462)"/>
</clipPath>
</defs>
</svg>
