<svg width="741" height="680" viewBox="0 0 741 680" fill="none" xmlns="http://www.w3.org/2000/svg">
<g clip-path="url(#clip0_31_192)">
<path d="M531.05 0H142.797V678.18H531.05V0Z" fill="#E6E6E6"/>
<path opacity="0.529" d="M309.522 86.7079H202.231V318.187H309.522V86.7079Z" fill="white"/>
<path opacity="0.529" d="M473.931 86.7079H365.097V318.187H473.931V86.7079Z" fill="white"/>
<path opacity="0.529" d="M309.522 358.444H202.231V589.924H309.522V358.444Z" fill="white"/>
<path opacity="0.529" d="M473.931 358.444H365.097V589.924H473.931V358.444Z" fill="white"/>
<path d="M514.165 258.873L533.617 276.503L543.882 265.113L524.431 247.484C524.303 245.349 523.752 243.261 522.812 241.342C521.871 239.422 520.558 237.71 518.951 236.305C512.887 230.808 504.296 230.433 499.761 235.465C495.227 240.498 496.465 249.034 502.528 254.53C504.084 255.992 505.915 257.13 507.914 257.876C509.912 258.622 512.039 258.961 514.17 258.874L514.165 258.873Z" fill="#9F616A"/>
<path d="M598.082 303.34L531.116 245.564L513.727 265.725L590.22 340.86" fill="#A5B6F5"/>
<path d="M616.23 337.072L625.942 375.564L558.884 374.737L566.558 339.568L616.23 337.072Z" fill="#9F616A"/>
<path d="M628.635 468.58L643.194 532.463L669.991 660.373L657.572 662.864L572.218 472.23L628.635 468.58Z" fill="#9F616A"/>
<path d="M600.604 483.13L573.712 542.857L534.219 662.865L517.661 658.713L553.456 451.844L600.604 483.13Z" fill="#9F616A"/>
<path d="M622.176 361.372C622.176 361.372 652.116 443.001 646.655 533.173C646.655 533.173 602.517 584.923 531.61 537.019L560.797 356.678L622.175 361.374L622.176 361.372Z" fill="#090814"/>
<path d="M672.065 675.626C672.696 675.174 673.225 674.594 673.619 673.924C674.012 673.254 674.261 672.509 674.349 671.736C674.455 670.124 673.66 668.396 671.99 666.597C671.95 666.079 671.431 659.666 670.275 658.517C670.372 658.174 670.961 655.898 669.996 654.42C669.75 654.065 669.426 653.771 669.048 653.562C668.67 653.352 668.25 653.234 667.819 653.215L667.775 653.21L667.754 653.248C667.727 653.299 664.914 658.259 660.683 658.695C658.258 658.944 655.83 657.677 653.466 654.927C653.378 654.724 652.712 651.375 652.281 649.157L652.264 649.069L629.214 661.373L615.74 665.164C614.967 665.388 614.28 665.841 613.768 666.464C613.257 667.087 612.946 667.851 612.875 668.655C612.804 669.459 612.978 670.266 613.373 670.969C613.767 671.672 614.365 672.239 615.087 672.596L621.617 675.784C624.36 677.119 627.368 677.815 630.417 677.82H665.846C668.108 677.831 670.304 677.059 672.064 675.633L672.065 675.626Z" fill="#090814"/>
<path d="M540.43 675.626C541.061 675.174 541.59 674.594 541.984 673.924C542.378 673.254 542.627 672.509 542.715 671.736C542.82 670.124 542.025 668.396 540.355 666.597C540.315 666.079 539.796 659.666 538.641 658.517C538.737 658.174 539.326 655.898 538.361 654.42C538.116 654.065 537.791 653.771 537.413 653.562C537.036 653.352 536.615 653.234 536.184 653.215L536.141 653.21L536.12 653.248C536.092 653.299 533.279 658.259 529.049 658.695C526.623 658.944 524.195 657.677 521.831 654.927C521.743 654.724 521.077 651.375 520.647 649.157L520.629 649.069L497.579 661.373L484.106 665.164C483.333 665.388 482.646 665.841 482.134 666.464C481.623 667.087 481.312 667.851 481.241 668.655C481.17 669.459 481.344 670.266 481.739 670.969C482.133 671.672 482.731 672.239 483.453 672.596L489.984 675.784C492.727 677.119 495.735 677.815 498.783 677.82H534.212C536.474 677.831 538.671 677.059 540.431 675.633L540.43 675.626Z" fill="#090814"/>
<path d="M606.595 217.627C606.594 212.613 605.207 207.697 602.589 203.425C599.971 199.154 596.223 195.693 591.763 193.429C587.303 191.164 582.304 190.184 577.321 190.596C572.339 191.009 567.568 192.798 563.538 195.766C559.509 198.734 556.378 202.764 554.494 207.408C552.609 212.052 552.045 217.13 552.864 222.076C553.683 227.023 555.853 231.645 559.132 235.429C562.412 239.214 566.673 242.013 571.442 243.515L576.671 278.175L603.328 255.895C599.693 251.098 596.717 245.834 594.478 240.244C598.205 237.773 601.263 234.413 603.378 230.466C605.493 226.519 606.599 222.108 606.597 217.627H606.595Z" fill="#9F616A"/>
<path d="M605.866 244.408L574.009 264.833L559.304 290.879C555.047 298.421 553.609 307.238 555.249 315.747L562.005 350.803H632.445L621.315 277.664C619.894 268.329 616.349 259.448 610.955 251.708L605.866 244.408Z" fill="#A5B6F5"/>
<path d="M615.279 253.272C615.279 253.272 614.017 262.879 602.312 263.197L578.574 263.833C578.574 263.833 598.643 214.853 590.39 220.371C582.137 225.888 560.137 202.755 560.137 202.755L553.646 214.967C553.646 214.967 538.131 209.334 555.325 195.535C555.325 195.535 575.835 179.631 597.61 189.181C619.384 198.731 615.281 253.267 615.281 253.267L615.279 253.272Z" fill="#090814"/>
<path d="M600.416 427.314L600.985 401.024L585.68 400.691L585.111 426.982C583.586 428.476 582.372 430.26 581.541 432.23C580.709 434.2 580.278 436.316 580.27 438.455C580.094 446.652 585.43 453.413 592.193 453.56C598.956 453.707 604.584 447.183 604.76 438.988C604.845 436.851 604.504 434.718 603.758 432.713C603.013 430.709 601.876 428.874 600.416 427.314Z" fill="#9F616A"/>
<path d="M579.286 295.728V423.158H605.866L613.721 296.8" fill="#A5B6F5"/>
<path d="M503.262 358.444C510.51 358.444 516.384 352.899 516.384 346.058C516.384 339.216 510.51 333.671 503.262 333.671C496.015 333.671 490.141 339.216 490.141 346.058C490.141 352.899 496.015 358.444 503.262 358.444Z" fill="#090814"/>
<path d="M87.1222 619.407C87.1222 619.407 103.183 597.255 119.691 599.278C119.691 599.283 102.069 618.066 87.1222 619.407Z" fill="#A5B6F5"/>
<path d="M75.9285 626.377C75.9285 626.377 57.2962 606.356 62.396 590.489C62.4207 590.481 77.4807 611.403 75.9285 626.377Z" fill="#A5B6F5"/>
<path d="M83.7995 627.363C83.7995 627.363 74.6082 607.572 81.0026 596.836C81.0263 596.835 87.0407 616.737 83.7995 627.363Z" fill="#090814"/>
<path d="M119.107 622.371L116.45 665.128L115.987 672.4C115.896 673.868 115.25 675.246 114.182 676.253C113.113 677.26 111.702 677.82 110.235 677.819H58.8732C57.4069 677.82 55.9954 677.26 54.9267 676.253C53.858 675.246 53.2125 673.868 53.1219 672.4L52.496 662.368L50.0028 622.371H119.107Z" fill="#F2F2F2"/>
<path d="M117.93 616.019H51.17C49.2516 616.019 47.6965 617.579 47.6965 619.503V626.977C47.6965 628.901 49.2516 630.46 51.17 630.46H117.93C119.849 630.46 121.404 628.901 121.404 626.977V619.503C121.404 617.579 119.849 616.019 117.93 616.019Z" fill="#A5B6F5"/>
<path d="M116.441 665.126L115.978 672.398C115.887 673.866 115.242 675.244 114.173 676.251C113.105 677.258 111.693 677.818 110.227 677.818H58.8755C57.4092 677.818 55.9978 677.258 54.9291 676.251C53.8604 675.244 53.2149 673.866 53.1243 672.398L52.4983 662.367C58.0265 657.94 66.6568 654.321 78.7922 658.181C95.7426 663.571 106.16 665.385 116.441 665.126Z" fill="#D6D6E3"/>
<path d="M0 678.908C0 679.512 0.659181 679.999 1.482 679.999H739.518C740.345 679.999 741 679.513 741 678.908C741 678.302 740.341 677.816 739.518 677.816H1.482C0.659181 677.817 0 678.303 0 678.908Z" fill="#D6D6E3"/>
</g>
<defs>
<clipPath id="clip0_31_192">
<rect width="741" height="680" fill="white"/>
</clipPath>
</defs>
</svg>
